<?xml version="1.0" encoding="UTF-8" standalone="no"?>
<!-- Created with Inkscape (http://www.inkscape.org/) -->

<svg
   width="241.87465mm"
   height="81.17363mm"
   viewBox="0 0 241.87465 81.17363"
   version="1.1"
   id="svg3880"
   xml:space="preserve"
   inkscape:version="1.3 (0e150ed6c4, 2023-07-21)"
   sodipodi:docname="bank_logo.svg"
   xmlns:inkscape="http://www.inkscape.org/namespaces/inkscape"
   xmlns:sodipodi="http://sodipodi.sourceforge.net/DTD/sodipodi-0.dtd"
   xmlns:xlink="http://www.w3.org/1999/xlink"
   xmlns="http://www.w3.org/2000/svg"
   xmlns:svg="http://www.w3.org/2000/svg"><sodipodi:namedview
     id="namedview3882"
     pagecolor="#ffffff"
     bordercolor="#000000"
     borderopacity="0.25"
     inkscape:showpageshadow="2"
     inkscape:pageopacity="0.0"
     inkscape:pagecheckerboard="0"
     inkscape:deskcolor="#d1d1d1"
     inkscape:document-units="mm"
     showgrid="false"
     inkscape:zoom="1.1893044"
     inkscape:cx="415.36885"
     inkscape:cy="232.48884"
     inkscape:window-width="2560"
     inkscape:window-height="1494"
     inkscape:window-x="-11"
     inkscape:window-y="-11"
     inkscape:window-maximized="1"
     inkscape:current-layer="layer2" /><defs
     id="defs3877"><linearGradient
       inkscape:collect="always"
       id="linearGradient7594"><stop
         style="stop-color:#f1cf02;stop-opacity:1;"
         offset="0"
         id="stop7590" /><stop
         style="stop-color:#f2b703;stop-opacity:1;"
         offset="1"
         id="stop7592" /></linearGradient><linearGradient
       inkscape:collect="always"
       id="linearGradient7172"><stop
         style="stop-color:#f1cf02;stop-opacity:1;"
         offset="0"
         id="stop7168" /><stop
         style="stop-color:#f2b603;stop-opacity:1;"
         offset="1"
         id="stop7170" /></linearGradient><linearGradient
       inkscape:collect="always"
       id="linearGradient5991"><stop
         style="stop-color:#f1cf02;stop-opacity:1;"
         offset="0"
         id="stop5987" /><stop
         style="stop-color:#f2b603;stop-opacity:1;"
         offset="1"
         id="stop5989" /></linearGradient><linearGradient
       inkscape:collect="always"
       id="linearGradient1433"><stop
         style="stop-color:#f0e500;stop-opacity:1;"
         offset="0"
         id="stop1429" /><stop
         style="stop-color:#f2b603;stop-opacity:1;"
         offset="1"
         id="stop1431" /></linearGradient><linearGradient
       inkscape:collect="always"
       xlink:href="#linearGradient1433"
       id="linearGradient1320"
       x1="57.102646"
       y1="82.00354"
       x2="128.98232"
       y2="82.00354"
       gradientUnits="userSpaceOnUse" /><linearGradient
       inkscape:collect="always"
       xlink:href="#linearGradient1433"
       id="linearGradient1322"
       x1="58.630859"
       y1="81.446762"
       x2="127.13413"
       y2="81.446762"
       gradientUnits="userSpaceOnUse" /><linearGradient
       inkscape:collect="always"
       xlink:href="#linearGradient5991"
       id="linearGradient5993"
       x1="172.96309"
       y1="100.73907"
       x2="259.06015"
       y2="100.73907"
       gradientUnits="userSpaceOnUse" /><linearGradient
       inkscape:collect="always"
       xlink:href="#linearGradient7172"
       id="linearGradient7174"
       x1="181.76254"
       y1="125.41819"
       x2="238.56528"
       y2="125.41819"
       gradientUnits="userSpaceOnUse" /><linearGradient
       inkscape:collect="always"
       xlink:href="#linearGradient7594"
       id="linearGradient7596"
       x1="17.185514"
       y1="64.624481"
       x2="87.581215"
       y2="64.624481"
       gradientUnits="userSpaceOnUse" /><linearGradient
       inkscape:collect="always"
       xlink:href="#linearGradient7594"
       id="linearGradient7667"
       gradientUnits="userSpaceOnUse"
       x1="17.185514"
       y1="64.624481"
       x2="87.581215"
       y2="64.624481" /><linearGradient
       inkscape:collect="always"
       xlink:href="#linearGradient5991"
       id="linearGradient1"
       gradientUnits="userSpaceOnUse"
       x1="172.96309"
       y1="100.73907"
       x2="259.06015"
       y2="100.73907" /><linearGradient
       inkscape:collect="always"
       xlink:href="#linearGradient7172"
       id="linearGradient2"
       gradientUnits="userSpaceOnUse"
       x1="181.76254"
       y1="125.41819"
       x2="238.56528"
       y2="125.41819" /></defs><g
     inkscape:label="Q"
     inkscape:groupmode="layer"
     id="layer1"
     transform="translate(30.63652,-34.793218)"><g
       inkscape:label="Layer 1"
       id="layer1-2"
       transform="translate(-7.6235214,-10.270487)"><path
         id="path184"
         style="fill:none;stroke:url(#linearGradient1320);stroke-width:4;stroke-dasharray:none"
         d="M 127.98232,82.00354 A 34.939835,34.939835 0 0 1 93.04248,116.94337 34.939835,34.939835 0 0 1 58.102646,82.00354 34.939835,34.939835 0 0 1 93.04248,47.063705 34.939835,34.939835 0 0 1 127.98232,82.00354 Z" /><path
         id="path951"
         style="fill:none;stroke:url(#linearGradient1322);stroke-width:0.485592;stroke-dasharray:0.485592, 0.971186"
         d="M 126.89133,81.446449 A 34.034306,5.7721348 0 0 1 92.857025,87.218584 34.034306,5.7721348 0 0 1 58.82272,81.446449 34.034306,5.7721348 0 0 1 92.857025,75.674314 34.034306,5.7721348 0 0 1 126.89133,81.446449 Z" /><path
         id="rect3677"
         style="fill:#f2b603;fill-opacity:1;stroke:none;stroke-width:0.693317;stroke-opacity:1"
         d="m 132.74269,121.9928 -4.08317,-13.32235 -9.23918,9.23916 z m -8.18668,-10.98269 -30.406985,-30.406994 -2.796017,2.796017 30.406982,30.406987 z" /></g></g><g
     inkscape:groupmode="layer"
     id="layer2"
     inkscape:label="quantum"
     transform="translate(-17.185514,-53.670337)"><g
       aria-label="uantum"
       id="text5045"
       style="font-size:25.4px;fill:url(#linearGradient5993);fill-opacity:1;stroke-width:4"
       inkscape:label="uantum"><path
         id="path5078"
         style="font-family:'Cascadia Code';-inkscape-font-specification:'Cascadia Code';fill:url(#linearGradient1);fill-opacity:1"
         d="m 219.96797,92.05743 v 3.96875 h -3.29902 v 2.158008 h 3.29902 v 4.787302 1.24024 c 0,1.81901 0.44235,3.14193 1.32705,3.96875 0.89297,0.82682 2.33577,1.24023 4.32842,1.24023 0.62011,0 1.20302,-0.0248 1.74873,-0.0744 0.55396,-0.0496 1.12034,-0.12403 1.69912,-0.22324 l -0.29766,-2.30684 c -0.59531,0.0744 -1.12448,0.13643 -1.5875,0.18603 -0.46302,0.0413 -0.90123,0.062 -1.31465,0.062 -1.16581,0 -2.00505,-0.23565 -2.51767,-0.70694 -0.50437,-0.47129 -0.75654,-1.22783 -0.75654,-2.26963 v -2.10839 -3.795122 h 5.97793 V 96.02618 h -5.97793 v -3.96875 z m -10.61641,3.720703 c -1.09967,0 -1.93476,0.219108 -2.50527,0.657324 -0.57051,0.429947 -0.89296,1.087273 -0.96738,1.971973 h -0.28371 l -0.21239,-2.38125 h -2.38125 v 13.14648 h 2.6293 v -7.39179 c 0,-2.430858 1.03353,-3.646292 3.10059,-3.646292 0.74413,0 1.32291,0.214975 1.73632,0.644922 0.41342,0.429947 0.62012,1.041799 0.62012,1.83555 v 8.55761 h 2.6293 v -8.55761 c 0,-1.537891 -0.38034,-2.728519 -1.14102,-3.571878 -0.76068,-0.843358 -1.83555,-1.265039 -3.22461,-1.265039 z m 42.56485,0 c -1.4056,0 -2.15801,0.628386 -2.25723,1.885156 h -0.19689 l -0.17518,-1.637109 h -2.33164 v 13.14648 h 2.6293 v -9.624214 c 0,-1.190625 0.42168,-1.785938 1.26503,-1.785938 0.69454,0 1.0418,0.372071 1.0418,1.116211 v 10.293941 h 2.23242 v -9.624214 c 0,-1.190625 0.42995,-1.785938 1.28985,-1.785938 0.67799,0 1.01699,0.454754 1.01699,1.364258 v 10.045894 h 2.6293 V 98.878719 c 0,-1.091405 -0.20671,-1.881023 -0.62012,-2.368848 -0.41341,-0.487825 -1.07487,-0.731738 -1.98438,-0.731738 -0.69452,0 -1.22783,0.186035 -1.5999,0.558106 -0.3638,0.372069 -0.56638,0.81442 -0.60771,1.32705 h -0.20619 c -0.0927,-0.489122 -0.26363,-0.881921 -0.51315,-1.178222 -0.38861,-0.471289 -0.92604,-0.706934 -1.6123,-0.706934 z m -62.83028,0.124024 -0.24804,2.33164 3.15019,0.08682 c 1.21543,0.03307 2.12907,0.256315 2.74092,0.669726 0.62011,0.405143 0.93017,1.045927 0.93017,1.922357 v 0.61082 c -0.12515,-0.0237 -0.253,-0.0458 -0.38447,-0.0651 -0.61184,-0.0992 -1.31051,-0.14883 -2.09599,-0.14883 -1.89342,0 -3.36104,0.37207 -4.40284,1.11621 -1.03352,0.74414 -1.55029,1.81074 -1.55029,3.1998 0,1.20716 0.37621,2.14147 1.12861,2.80293 0.75242,0.66146 1.81488,0.99219 3.18741,0.99219 0.86816,0 1.62057,-0.12402 2.25722,-0.37207 0.63666,-0.25632 1.12862,-0.63666 1.47588,-1.14101 0.29184,-0.4208 0.46397,-0.92516 0.51625,-1.51309 h 0.25993 l 0.12919,2.90215 4.2168,-0.12403 v -2.10839 l -2.23242,-0.27286 v -5.48183 c 0,-1.736323 -0.52917,-3.05511 -1.5875,-3.956346 -1.05007,-0.909504 -2.66237,-1.380794 -4.83692,-1.413867 z m -16.12304,0.124023 v 8.68164 c 0,1.49655 0.3762,2.65824 1.12861,3.48506 0.76067,0.81856 1.83141,1.22783 3.21221,1.22783 0.8847,0 1.62884,-0.23978 2.23242,-0.71933 0.60358,-0.47956 1.00872,-1.16583 1.21543,-2.05879 h 0.23358 l 0.1881,2.6541 4.21679,-0.12403 v -2.10839 l -1.81074,-0.27286 v -2.08359 -8.68164 h -2.62929 v 7.06934 c 0,1.4304 -0.24392,2.45153 -0.73174,3.06337 -0.48783,0.60358 -1.2113,0.90538 -2.17041,0.90538 -0.77722,0 -1.3808,-0.20258 -1.81075,-0.60772 -0.42994,-0.41341 -0.64492,-0.99632 -0.64492,-1.74873 v -8.68164 z m 59.53125,0 v 8.68164 c 0,1.49655 0.3762,2.65824 1.12861,3.48506 0.76067,0.81856 1.83141,1.22783 3.21221,1.22783 0.8847,0 1.62884,-0.23978 2.23242,-0.71933 0.60358,-0.47956 1.00872,-1.16583 1.21543,-2.05879 h 0.23358 l 0.1881,2.6541 4.21679,-0.12403 v -2.10839 l -1.81074,-0.27286 v -2.08359 -8.68164 h -2.62929 v 7.06934 c 0,1.4304 -0.24392,2.45153 -0.73174,3.06337 -0.48783,0.60358 -1.2113,0.90538 -2.17041,0.90538 -0.77722,0 -1.3808,-0.20258 -1.81075,-0.60772 -0.42994,-0.41341 -0.64492,-0.99632 -0.64492,-1.74873 v -8.68164 z m -39.36504,7.3918 c 0.55396,0 1.09554,0.0124 1.6247,0.0372 0.29774,0.009 0.59978,0.0362 0.90537,0.0796 v 0.77618 0.14882 c 1e-5,0.46302 -0.13643,0.91365 -0.40927,1.35186 -0.27286,0.43822 -0.68626,0.79788 -1.24024,1.079 -0.5457,0.28112 -1.22782,0.42168 -2.04638,0.42168 -0.71934,0 -1.27745,-0.15709 -1.67432,-0.47129 -0.38861,-0.31419 -0.58291,-0.76067 -0.58291,-1.33945 0,-1.38906 1.14102,-2.08359 3.42305,-2.08359 z" /></g><g
       aria-label="Bank"
       id="text5045-7"
       style="font-size:25.4px;fill:url(#linearGradient7174);fill-opacity:1;stroke-width:4"
       inkscape:label="Bank"><path
         id="path5092"
         style="font-family:'Cascadia Code';-inkscape-font-specification:'Cascadia Code';fill:url(#linearGradient2);fill-opacity:1"
         d="m 226.41099,115.9924 v 18.60352 h 2.62929 v -4.98574 h 1.33946 c 0.67908,0 1.31117,-0.0696 1.89652,-0.20723 l 3.03961,5.19297 h 3.24941 l -3.86953,-6.35724 c 0.24166,-0.19589 0.46906,-0.41221 0.68213,-0.65009 1.21543,-1.35599 1.99678,-3.40238 2.34404,-6.13916 h -2.72851 c -0.19017,1.41387 -0.48782,2.54662 -0.89297,3.39825 -0.39687,0.85162 -0.94671,1.46761 -1.64951,1.84795 -0.7028,0.37207 -1.59991,0.5581 -2.69131,0.5581 h -0.71934 V 115.9924 Z m -44.64844,0.99219 v 17.61133 h 2.48047 4.2664 c 1.70326,0 3.01791,-0.42168 3.94395,-1.26504 0.92604,-0.84336 1.38906,-2.03399 1.38906,-3.57188 0,-1.40559 -0.48783,-2.49287 -1.46347,-3.26181 -0.94817,-0.74729 -2.28012,-1.1303 -3.99356,-1.15135 v -0.15452 c 1.17221,-0.11595 2.1154,-0.4241 2.82773,-0.92655 0.92604,-0.66146 1.38907,-1.59991 1.38907,-2.81534 0,-1.4304 -0.48783,-2.53008 -1.46348,-3.29902 -0.97564,-0.77722 -2.35644,-1.16582 -4.14238,-1.16582 h -2.75332 z m 2.48047,2.35645 h 2.62929 c 1.00046,0 1.76941,0.20257 2.30684,0.60771 0.54571,0.40515 0.81856,0.98805 0.81856,1.74873 0,0.77721 -0.26045,1.37666 -0.78135,1.79834 -0.51263,0.41341 -1.2361,0.62012 -2.17041,0.62012 h -2.80293 z m 33.73437,1.86035 c -1.09968,0 -1.93476,0.2191 -2.50527,0.65732 -0.57051,0.42995 -0.89297,1.08728 -0.96738,1.97197 h -0.28371 l -0.21239,-2.38125 h -2.38125 v 13.14649 h 2.6293 v -7.3918 c 0,-2.43086 1.03353,-3.64629 3.10059,-3.64629 0.74413,0 1.32291,0.21498 1.73632,0.64492 0.41341,0.42995 0.62012,1.0418 0.62012,1.83555 v 8.55762 h 2.6293 v -8.55762 c 0,-1.53789 -0.38035,-2.72851 -1.14102,-3.57187 -0.76068,-0.84336 -1.83555,-1.26504 -3.22461,-1.26504 z m -20.26543,0.12402 -0.24804,2.33164 3.15019,0.0868 c 1.21543,0.0331 2.12907,0.25631 2.74092,0.66972 0.62012,0.40514 0.93018,1.04594 0.93018,1.92237 v 0.61081 c -0.12516,-0.0237 -0.253,-0.0458 -0.38448,-0.0651 -0.61185,-0.0992 -1.31051,-0.14883 -2.09599,-0.14883 -1.89343,0 -3.36104,0.37207 -4.40284,1.11621 -1.03353,0.74414 -1.55029,1.81075 -1.55029,3.19981 0,1.20716 0.3762,2.14147 1.12861,2.80293 0.75241,0.66146 1.81488,0.99219 3.18741,0.99219 0.86816,0 1.62057,-0.12403 2.25722,-0.37207 0.63666,-0.25632 1.12862,-0.63665 1.47588,-1.14102 0.29176,-0.42067 0.46391,-0.92537 0.51625,-1.51309 h 0.25993 l 0.12919,2.90215 4.2168,-0.12402 v -2.1084 l -2.23242,-0.27285 v -5.48184 c 0,-1.73633 -0.52917,-3.05511 -1.5875,-3.95634 -1.05007,-0.90952 -2.66238,-1.38081 -4.83692,-1.41387 z m -13.46894,5.14697 h 3.37344 c 1.15755,0 2.05052,0.25632 2.6789,0.76895 0.62839,0.50437 0.94258,1.21957 0.94258,2.1456 0,0.90124 -0.30179,1.60404 -0.90537,2.1084 -0.60358,0.4961 -1.45108,0.74414 -2.54248,0.74414 h -3.54707 z m 17.51211,2.36885 c 0.55397,0 1.09554,0.0124 1.6247,0.0372 0.29775,0.009 0.59977,0.0362 0.90538,0.0796 v 0.77618 0.14883 c 0,0.46302 -0.13643,0.91363 -0.40928,1.35185 -0.27286,0.43822 -0.68627,0.79789 -1.24024,1.07901 -0.5457,0.28112 -1.22783,0.42168 -2.04638,0.42168 -0.71934,0 -1.27744,-0.1571 -1.67432,-0.47129 -0.38861,-0.31419 -0.58291,-0.76068 -0.58291,-1.33945 0,-1.38906 1.14102,-2.0836 3.42305,-2.0836 z" /></g><g
       aria-label="Isa's"
       id="text5076"
       style="font-size:25.4px;font-family:'Cascadia Code';-inkscape-font-specification:'Cascadia Code';fill:url(#linearGradient7596);fill-opacity:1;stroke-width:4"
       inkscape:label="Isa's"
       transform="translate(-2.3246348e-7,32.480471)"><path
         id="path5102"
         d="m 17.185514,55.694792 v 2.356445 h 4.105176 v 12.898437 h -4.105176 v 2.356446 h 10.715625 v -2.356446 h -4.12998 V 58.051237 h 4.12998 v -2.356445 z m 48.567578,0 0.248047,7.9375 h 2.38125 l 0.248047,-7.9375 z m -26.640234,4.216797 c -2.455661,0 -4.237469,0.322462 -5.34541,0.967382 -1.099673,0.644922 -1.649512,1.68672 -1.649512,3.125391 0,0.992186 0.301791,1.732194 0.905371,2.22002 0.611848,0.487824 1.566831,0.897103 2.864942,1.227832 l 3.026172,0.768945 c 0.438215,0.107486 0.760677,0.260449 0.967382,0.458887 0.214974,0.190168 0.322461,0.483691 0.322461,0.880566 0,0.570507 -0.301791,0.988054 -0.905371,1.252637 -0.595312,0.256314 -1.558563,0.384472 -2.889746,0.384472 -0.595312,0 -1.227832,-0.03307 -1.897558,-0.09922 -0.661458,-0.06615 -1.42627,-0.165365 -2.294434,-0.297657 l -0.297656,2.38125 c 0.587044,0.13229 1.231967,0.227374 1.934765,0.285254 0.711067,0.05788 1.562696,0.08682 2.554883,0.08682 2.282029,0 3.939812,-0.318327 4.97334,-0.954981 1.033528,-0.644921 1.550293,-1.674318 1.550293,-3.088183 0,-1.058333 -0.322462,-1.864487 -0.967383,-2.418457 -0.636653,-0.553971 -1.645379,-0.996322 -3.026172,-1.327051 l -2.430859,-0.595313 c -0.562239,-0.14056 -0.979786,-0.293523 -1.252637,-0.458886 -0.272852,-0.173634 -0.409277,-0.45062 -0.409277,-0.830957 0,-0.570508 0.330729,-0.979786 0.992187,-1.227832 0.661458,-0.256316 1.728062,-0.384473 3.199805,-0.384473 0.487826,0 0.988054,0.0124 1.500684,0.03721 0.512629,0.0248 1.103809,0.07028 1.773535,0.136426 l 0.272851,-2.282032 c -0.578775,-0.09095 -1.14515,-0.152961 -1.699121,-0.186035 -0.545703,-0.04134 -1.136882,-0.06201 -1.773535,-0.06201 z m 44.648438,0 c -2.455662,0 -4.237469,0.322462 -5.345411,0.967382 -1.099673,0.644922 -1.649511,1.68672 -1.649511,3.125391 0,0.992186 0.301791,1.732194 0.905371,2.22002 0.611849,0.487824 1.56683,0.897103 2.864941,1.227832 l 3.026172,0.768945 c 0.438216,0.107486 0.760678,0.260449 0.967383,0.458887 0.214974,0.190168 0.322461,0.483691 0.322461,0.880566 0,0.570507 -0.301791,0.988054 -0.905371,1.252637 -0.595312,0.256314 -1.558563,0.384472 -2.889746,0.384472 -0.595312,0 -1.227834,-0.03307 -1.897559,-0.09922 -0.661458,-0.06615 -1.42627,-0.165365 -2.294434,-0.297657 l -0.297656,2.38125 c 0.587044,0.13229 1.231967,0.227374 1.934766,0.285254 0.711067,0.05788 1.562696,0.08682 2.554883,0.08682 2.282029,0 3.939812,-0.318327 4.973339,-0.954981 1.033528,-0.644921 1.550293,-1.674318 1.550293,-3.088183 0,-1.058333 -0.322461,-1.864487 -0.967382,-2.418457 -0.636653,-0.553971 -1.645379,-0.996322 -3.026172,-1.327051 l -2.43086,-0.595313 c -0.562239,-0.14056 -0.979785,-0.293523 -1.252636,-0.458886 -0.272851,-0.173634 -0.409278,-0.45062 -0.409278,-0.830957 0,-0.570508 0.33073,-0.979786 0.992188,-1.227832 0.661458,-0.256316 1.728061,-0.384473 3.199805,-0.384473 0.487824,0 0.988054,0.0124 1.500683,0.03721 0.51263,0.0248 1.103809,0.07028 1.773535,0.136426 l 0.272852,-2.282032 c -0.578776,-0.09095 -1.14515,-0.152961 -1.699121,-0.186035 -0.545703,-0.04134 -1.136883,-0.06201 -1.773535,-0.06201 z m -35.842774,0.124023 -0.248047,2.331641 3.150196,0.08682 c 1.215428,0.03307 2.129069,0.256315 2.740918,0.669727 0.620116,0.405142 0.930175,1.045931 0.930175,1.922363 v 0.610815 c -0.125309,-0.02378 -0.252829,-0.0458 -0.384472,-0.06511 -0.611848,-0.09922 -1.310515,-0.148828 -2.095996,-0.148828 -1.893423,0 -3.361037,0.372071 -4.402832,1.116211 -1.033528,0.74414 -1.550293,1.810744 -1.550293,3.199804 0,1.207161 0.376205,2.141473 1.128613,2.80293 0.752408,0.661458 1.814878,0.992188 3.187402,0.992188 0.868163,0 1.620574,-0.124024 2.257227,-0.372071 0.636653,-0.256314 1.128614,-0.636654 1.475879,-1.141015 0.291841,-0.420795 0.463449,-0.925157 0.51573,-1.513086 h 0.26045 l 0.129191,2.902148 4.216797,-0.124023 V 71.197721 L 56.997038,70.92487 v -5.481836 c 0,-1.736326 -0.529168,-3.055111 -1.5875,-3.956348 -1.050064,-0.909504 -2.662372,-1.380794 -4.836914,-1.413867 z m 4.043164,7.51582 c 0.553971,0 1.095541,0.0124 1.624707,0.03721 0.297821,0.0093 0.599694,0.03623 0.905371,0.07958 v 0.77618 0.148828 c 0,0.46302 -0.136425,0.913639 -0.409277,1.351856 -0.272851,0.438215 -0.686264,0.797884 -1.240234,1.079004 -0.545703,0.281119 -1.227833,0.421679 -2.046387,0.421679 -0.719335,0 -1.277442,-0.157096 -1.674317,-0.471289 -0.388606,-0.314192 -0.58291,-0.760678 -0.58291,-1.339453 0,-1.389061 1.141018,-2.083594 3.423047,-2.083595 z"
         style="fill:url(#linearGradient7667);fill-opacity:1" /></g></g></svg>
